<svg width="1247" height="1171" viewBox="0 0 1247 1171" fill="none" xmlns="http://www.w3.org/2000/svg">
<mask id="path-1-inside-1_1418_17" fill="white">
<path d="M935.222 1163.39C1054.62 1094.46 1147.79 987.888 1200.17 860.358C1252.55 732.829 1261.17 591.534 1224.69 458.583C1188.2 325.631 1108.68 208.524 998.549 125.586C888.42 42.6474 753.904 -1.44295 616.048 0.213602C478.192 1.87015 344.774 49.1802 236.671 134.741C128.567 220.302 51.8773 339.286 18.6009 473.076C-14.6756 606.865 -2.66108 747.912 52.7645 874.146C108.19 1000.38 203.899 1104.68 324.917 1170.72L623.538 623.537L935.222 1163.39Z"/>
</mask>
<path d="M935.222 1163.39C1054.62 1094.46 1147.79 987.888 1200.17 860.358C1252.55 732.829 1261.17 591.534 1224.69 458.583C1188.2 325.631 1108.68 208.524 998.549 125.586C888.42 42.6474 753.904 -1.44295 616.048 0.213602C478.192 1.87015 344.774 49.1802 236.671 134.741C128.567 220.302 51.8773 339.286 18.6009 473.076C-14.6756 606.865 -2.66108 747.912 52.7645 874.146C108.19 1000.38 203.899 1104.68 324.917 1170.72L623.538 623.537L935.222 1163.39Z" stroke="white" stroke-width="263.613" mask="url(#path-1-inside-1_1418_17)"/>
</svg>
