<svg width="1248" height="1171" viewBox="0 0 1248 1171" fill="none" xmlns="http://www.w3.org/2000/svg">
<mask id="path-1-inside-1_610_835" fill="white">
<path d="M935.515 1163.39C1054.91 1094.46 1148.09 987.888 1200.46 860.358C1252.84 732.829 1261.46 591.534 1224.98 458.583C1188.5 325.631 1108.97 208.524 998.842 125.586C888.713 42.6474 754.197 -1.44295 616.341 0.213602C478.485 1.87015 345.067 49.1802 236.964 134.741C128.86 220.302 52.1703 339.286 18.8938 473.076C-14.3826 606.865 -2.36811 747.912 53.0574 874.146C108.483 1000.38 204.192 1104.68 325.21 1170.72L623.831 623.537L935.515 1163.39Z"/>
</mask>
<path d="M935.515 1163.39C1054.91 1094.46 1148.09 987.888 1200.46 860.358C1252.84 732.829 1261.46 591.534 1224.98 458.583C1188.5 325.631 1108.97 208.524 998.842 125.586C888.713 42.6474 754.197 -1.44295 616.341 0.213602C478.485 1.87015 345.067 49.1802 236.964 134.741C128.86 220.302 52.1703 339.286 18.8938 473.076C-14.3826 606.865 -2.36811 747.912 53.0574 874.146C108.483 1000.38 204.192 1104.68 325.21 1170.72L623.831 623.537L935.515 1163.39Z" stroke="black" stroke-width="263.613" mask="url(#path-1-inside-1_610_835)"/>
</svg>
